<mxfile host="app.diagrams.net" agent="Mozilla/5.0 (Windows NT 10.0; Win64; x64) AppleWebKit/537.36 (KHTML, like Gecko) Chrome/127.0.0.0 Safari/537.36" version="24.7.6">
  <diagram name="Página-1" id="BR-UxxLfFNg7qrdN2R8T">
    <mxGraphModel dx="1133" dy="1818" grid="1" gridSize="10" guides="1" tooltips="1" connect="1" arrows="1" fold="1" page="1" pageScale="1" pageWidth="827" pageHeight="1169" math="0" shadow="0">
      <root>
        <mxCell id="0" />
        <mxCell id="1" parent="0" />
        <mxCell id="t7h8KRTVV-r-G717Ekhm-2" value="Cliente" style="swimlane;childLayout=stackLayout;horizontal=1;startSize=50;horizontalStack=0;rounded=1;fontSize=14;fontStyle=0;strokeWidth=2;resizeParent=0;resizeLast=1;shadow=0;dashed=0;align=center;arcSize=4;whiteSpace=wrap;html=1;" vertex="1" parent="1">
          <mxGeometry x="280" y="160" width="160" height="160" as="geometry" />
        </mxCell>
        <mxCell id="t7h8KRTVV-r-G717Ekhm-3" value="+idCliente&lt;br&gt;+nome&lt;br&gt;+sobrenome&lt;div&gt;+dataNascimento&lt;/div&gt;&lt;div&gt;+cpf&lt;/div&gt;&lt;div&gt;+email&lt;/div&gt;&lt;div&gt;+idEndereco&lt;/div&gt;" style="align=left;strokeColor=none;fillColor=none;spacingLeft=4;fontSize=12;verticalAlign=top;resizable=0;rotatable=0;part=1;html=1;" vertex="1" parent="t7h8KRTVV-r-G717Ekhm-2">
          <mxGeometry y="50" width="160" height="110" as="geometry" />
        </mxCell>
        <mxCell id="t7h8KRTVV-r-G717Ekhm-4" value="Comerciante" style="swimlane;childLayout=stackLayout;horizontal=1;startSize=50;horizontalStack=0;rounded=1;fontSize=14;fontStyle=0;strokeWidth=2;resizeParent=0;resizeLast=1;shadow=0;dashed=0;align=center;arcSize=4;whiteSpace=wrap;html=1;" vertex="1" parent="1">
          <mxGeometry x="80" y="440" width="160" height="110" as="geometry" />
        </mxCell>
        <mxCell id="t7h8KRTVV-r-G717Ekhm-5" value="+idComerciante&lt;br&gt;+nome&lt;br&gt;+cnpj" style="align=left;strokeColor=none;fillColor=none;spacingLeft=4;fontSize=12;verticalAlign=top;resizable=0;rotatable=0;part=1;html=1;" vertex="1" parent="t7h8KRTVV-r-G717Ekhm-4">
          <mxGeometry y="50" width="160" height="60" as="geometry" />
        </mxCell>
        <mxCell id="t7h8KRTVV-r-G717Ekhm-6" value="Cartão" style="swimlane;childLayout=stackLayout;horizontal=1;startSize=50;horizontalStack=0;rounded=1;fontSize=14;fontStyle=0;strokeWidth=2;resizeParent=0;resizeLast=1;shadow=0;dashed=0;align=center;arcSize=4;whiteSpace=wrap;html=1;" vertex="1" parent="1">
          <mxGeometry x="600" y="400" width="160" height="180" as="geometry" />
        </mxCell>
        <mxCell id="t7h8KRTVV-r-G717Ekhm-7" value="+idCartao&lt;br&gt;+numeroCartao&lt;br&gt;+dataValidade&lt;div&gt;+cvv&lt;/div&gt;&lt;div&gt;+limite&lt;/div&gt;&lt;div&gt;+saldo&lt;/div&gt;&lt;div&gt;+ativado&lt;/div&gt;&lt;div&gt;+idCliente&lt;/div&gt;" style="align=left;strokeColor=none;fillColor=none;spacingLeft=4;fontSize=12;verticalAlign=top;resizable=0;rotatable=0;part=1;html=1;" vertex="1" parent="t7h8KRTVV-r-G717Ekhm-6">
          <mxGeometry y="50" width="160" height="130" as="geometry" />
        </mxCell>
        <mxCell id="t7h8KRTVV-r-G717Ekhm-8" value="Transação" style="swimlane;childLayout=stackLayout;horizontal=1;startSize=50;horizontalStack=0;rounded=1;fontSize=14;fontStyle=0;strokeWidth=2;resizeParent=0;resizeLast=1;shadow=0;dashed=0;align=center;arcSize=4;whiteSpace=wrap;html=1;" vertex="1" parent="1">
          <mxGeometry x="320" y="440" width="160" height="150" as="geometry" />
        </mxCell>
        <mxCell id="t7h8KRTVV-r-G717Ekhm-9" value="+idTransacao&lt;br&gt;+codAutorizacao&lt;br&gt;+timestampTransacao&lt;div&gt;+valorTransacao&lt;/div&gt;&lt;div&gt;+idCartao&lt;/div&gt;&lt;div&gt;+idComerciante&lt;/div&gt;" style="align=left;strokeColor=none;fillColor=none;spacingLeft=4;fontSize=12;verticalAlign=top;resizable=0;rotatable=0;part=1;html=1;" vertex="1" parent="t7h8KRTVV-r-G717Ekhm-8">
          <mxGeometry y="50" width="160" height="100" as="geometry" />
        </mxCell>
        <mxCell id="t7h8KRTVV-r-G717Ekhm-11" value="Endereço" style="swimlane;childLayout=stackLayout;horizontal=1;startSize=50;horizontalStack=0;rounded=1;fontSize=14;fontStyle=0;strokeWidth=2;resizeParent=0;resizeLast=1;shadow=0;dashed=0;align=center;arcSize=4;whiteSpace=wrap;html=1;" vertex="1" parent="1">
          <mxGeometry x="600" y="160" width="160" height="190" as="geometry" />
        </mxCell>
        <mxCell id="t7h8KRTVV-r-G717Ekhm-12" value="+idEndereco&lt;br&gt;+tipo&lt;br&gt;+logradouro&lt;div&gt;+numero&lt;/div&gt;&lt;div&gt;+complemento&lt;/div&gt;&lt;div&gt;+cep&lt;/div&gt;&lt;div&gt;+bairro&lt;/div&gt;&lt;div&gt;+cidade&lt;/div&gt;&lt;div&gt;+estado&lt;/div&gt;" style="align=left;strokeColor=none;fillColor=none;spacingLeft=4;fontSize=12;verticalAlign=top;resizable=0;rotatable=0;part=1;html=1;" vertex="1" parent="t7h8KRTVV-r-G717Ekhm-11">
          <mxGeometry y="50" width="160" height="140" as="geometry" />
        </mxCell>
        <mxCell id="t7h8KRTVV-r-G717Ekhm-13" value="Telefone" style="swimlane;childLayout=stackLayout;horizontal=1;startSize=50;horizontalStack=0;rounded=1;fontSize=14;fontStyle=0;strokeWidth=2;resizeParent=0;resizeLast=1;shadow=0;dashed=0;align=center;arcSize=4;whiteSpace=wrap;html=1;" vertex="1" parent="1">
          <mxGeometry x="40" y="160" width="160" height="110" as="geometry" />
        </mxCell>
        <mxCell id="t7h8KRTVV-r-G717Ekhm-14" value="+idCliente&lt;br&gt;+ddd&lt;br&gt;+numero" style="align=left;strokeColor=none;fillColor=none;spacingLeft=4;fontSize=12;verticalAlign=top;resizable=0;rotatable=0;part=1;html=1;" vertex="1" parent="t7h8KRTVV-r-G717Ekhm-13">
          <mxGeometry y="50" width="160" height="60" as="geometry" />
        </mxCell>
        <mxCell id="t7h8KRTVV-r-G717Ekhm-15" value="Notificação" style="swimlane;childLayout=stackLayout;horizontal=1;startSize=50;horizontalStack=0;rounded=1;fontSize=14;fontStyle=0;strokeWidth=2;resizeParent=0;resizeLast=1;shadow=0;dashed=0;align=center;arcSize=4;whiteSpace=wrap;html=1;" vertex="1" parent="1">
          <mxGeometry x="600" width="160" height="110" as="geometry" />
        </mxCell>
        <mxCell id="t7h8KRTVV-r-G717Ekhm-16" value="+idNotificacao&lt;br&gt;+timestampNotificacao&lt;br&gt;&lt;div&gt;+mensagem&lt;/div&gt;" style="align=left;strokeColor=none;fillColor=none;spacingLeft=4;fontSize=12;verticalAlign=top;resizable=0;rotatable=0;part=1;html=1;" vertex="1" parent="t7h8KRTVV-r-G717Ekhm-15">
          <mxGeometry y="50" width="160" height="60" as="geometry" />
        </mxCell>
        <mxCell id="t7h8KRTVV-r-G717Ekhm-24" value="" style="edgeStyle=entityRelationEdgeStyle;fontSize=12;html=1;endArrow=ERzeroToMany;startArrow=ERmandOne;rounded=0;exitX=1;exitY=0.75;exitDx=0;exitDy=0;entryX=0;entryY=0;entryDx=0;entryDy=0;" edge="1" parent="1" target="t7h8KRTVV-r-G717Ekhm-7">
          <mxGeometry width="100" height="100" relative="1" as="geometry">
            <mxPoint x="439.9999999999998" y="300.0000000000001" as="sourcePoint" />
            <mxPoint x="600" y="480" as="targetPoint" />
            <Array as="points">
              <mxPoint x="490" y="367.5" />
              <mxPoint x="470" y="377.5" />
              <mxPoint x="460" y="347.5" />
              <mxPoint x="580" y="347.5" />
            </Array>
          </mxGeometry>
        </mxCell>
        <mxCell id="t7h8KRTVV-r-G717Ekhm-26" value="" style="edgeStyle=entityRelationEdgeStyle;fontSize=12;html=1;endArrow=ERzeroToMany;startArrow=ERmandOne;rounded=0;entryX=1;entryY=0.5;entryDx=0;entryDy=0;exitX=0;exitY=0.5;exitDx=0;exitDy=0;" edge="1" parent="1" source="t7h8KRTVV-r-G717Ekhm-12" target="t7h8KRTVV-r-G717Ekhm-3">
          <mxGeometry width="100" height="100" relative="1" as="geometry">
            <mxPoint x="500" y="500" as="sourcePoint" />
            <mxPoint x="600" y="400" as="targetPoint" />
          </mxGeometry>
        </mxCell>
        <mxCell id="t7h8KRTVV-r-G717Ekhm-27" value="" style="edgeStyle=entityRelationEdgeStyle;fontSize=12;html=1;endArrow=ERzeroToMany;startArrow=ERmandOne;rounded=0;entryX=1;entryY=0.25;entryDx=0;entryDy=0;" edge="1" parent="1" source="t7h8KRTVV-r-G717Ekhm-3" target="t7h8KRTVV-r-G717Ekhm-14">
          <mxGeometry width="100" height="100" relative="1" as="geometry">
            <mxPoint x="350" y="365" as="sourcePoint" />
            <mxPoint x="190" y="350" as="targetPoint" />
          </mxGeometry>
        </mxCell>
        <mxCell id="t7h8KRTVV-r-G717Ekhm-30" value="" style="edgeStyle=entityRelationEdgeStyle;fontSize=12;html=1;endArrow=ERzeroToMany;startArrow=ERmandOne;rounded=0;exitX=1;exitY=0.5;exitDx=0;exitDy=0;entryX=0;entryY=0.5;entryDx=0;entryDy=0;" edge="1" parent="1" source="t7h8KRTVV-r-G717Ekhm-5" target="t7h8KRTVV-r-G717Ekhm-9">
          <mxGeometry width="100" height="100" relative="1" as="geometry">
            <mxPoint x="500" y="500" as="sourcePoint" />
            <mxPoint x="600" y="400" as="targetPoint" />
            <Array as="points">
              <mxPoint x="330" y="530" />
            </Array>
          </mxGeometry>
        </mxCell>
        <mxCell id="t7h8KRTVV-r-G717Ekhm-31" value="" style="edgeStyle=entityRelationEdgeStyle;fontSize=12;html=1;endArrow=ERzeroToMany;startArrow=ERmandOne;rounded=0;exitX=0;exitY=0.5;exitDx=0;exitDy=0;entryX=0.994;entryY=0.382;entryDx=0;entryDy=0;entryPerimeter=0;" edge="1" parent="1" source="t7h8KRTVV-r-G717Ekhm-7" target="t7h8KRTVV-r-G717Ekhm-9">
          <mxGeometry width="100" height="100" relative="1" as="geometry">
            <mxPoint x="510" y="640" as="sourcePoint" />
            <mxPoint x="590" y="660" as="targetPoint" />
            <Array as="points">
              <mxPoint x="600" y="650" />
              <mxPoint x="490" y="530" />
            </Array>
          </mxGeometry>
        </mxCell>
        <mxCell id="t7h8KRTVV-r-G717Ekhm-32" value="" style="edgeStyle=entityRelationEdgeStyle;fontSize=12;html=1;endArrow=ERoneToMany;startArrow=ERzeroToMany;rounded=0;entryX=1;entryY=0;entryDx=0;entryDy=0;exitX=0;exitY=0.25;exitDx=0;exitDy=0;" edge="1" parent="1" source="t7h8KRTVV-r-G717Ekhm-16" target="t7h8KRTVV-r-G717Ekhm-3">
          <mxGeometry width="100" height="100" relative="1" as="geometry">
            <mxPoint x="370" y="50" as="sourcePoint" />
            <mxPoint x="190" y="110" as="targetPoint" />
          </mxGeometry>
        </mxCell>
      </root>
    </mxGraphModel>
  </diagram>
</mxfile>
